<svg width="532" height="488" viewBox="0 0 532 488" fill="none" xmlns="http://www.w3.org/2000/svg">
<g opacity="0.4">
<path d="M198.617 310.591C247.287 359.262 298.862 395.782 342.886 415.491C364.9 425.346 385.001 430.986 401.893 431.856C418.785 432.726 432.41 428.826 441.566 419.67C450.721 410.514 454.622 396.889 453.752 379.998C452.882 363.106 447.241 343.005 437.386 320.991C417.678 276.966 381.158 225.392 332.487 176.721C283.816 128.05 232.242 91.5302 188.217 71.8216C166.203 61.9665 146.102 56.3262 129.21 55.4561C112.318 54.586 98.6936 58.4867 89.538 67.6423C80.3823 76.7979 76.4817 90.4228 77.3517 107.315C78.2218 124.206 83.8621 144.308 93.7172 166.322C113.426 210.346 149.946 261.921 198.617 310.591Z" stroke="#C4C4C4"/>
<path d="M241.052 335.09C307.537 352.905 370.462 358.745 418.443 353.801C442.435 351.328 462.663 346.162 477.727 338.47C492.791 330.778 502.64 320.587 505.991 308.08C509.342 295.573 505.908 281.824 496.708 267.63C487.509 253.436 472.574 238.848 453.032 224.711C413.952 196.439 356.537 170.034 290.052 152.22C223.566 134.405 160.641 128.565 112.661 133.509C88.6686 135.981 68.4403 141.147 53.3765 148.839C38.3127 156.532 28.4636 166.722 25.1124 179.229C21.7612 191.736 25.1955 205.486 34.395 219.68C43.5944 233.873 58.5296 248.461 78.0714 262.598C117.152 290.87 174.566 317.275 241.052 335.09Z" stroke="#C4C4C4"/>
</g>
</svg>
