<svg width="423" height="444" viewBox="0 0 423 444" fill="none" xmlns="http://www.w3.org/2000/svg">
<rect opacity="0.4" x="5.63428" y="222" width="13.5228" height="183.685" transform="rotate(-90 5.63428 222)" fill="url(#paint0_linear_866_13502)"/>
<rect opacity="0.4" x="103.675" y="145.37" width="13.5228" height="318.914" transform="rotate(-90 103.675 145.37)" fill="url(#paint1_linear_866_13502)"/>
<rect opacity="0.4" x="188.193" y="330.183" width="13.5228" height="198.335" transform="rotate(-90 188.193 330.183)" fill="url(#paint2_linear_866_13502)"/>
<circle cx="6.76142" cy="215.239" r="6.76142" transform="rotate(-90 6.76142 215.239)" fill="#007AFF"/>
<circle cx="104.802" cy="138.609" r="6.76142" transform="rotate(-90 104.802 138.609)" fill="#007AFF"/>
<circle cx="189.32" cy="323.421" r="6.76142" transform="rotate(-90 189.32 323.421)" fill="#007AFF"/>
<circle cx="98.0407" cy="6.76104" r="6.76142" transform="rotate(-90 98.0407 6.76104)" fill="white"/>
<circle cx="270.457" cy="437.239" r="6.76142" transform="rotate(-90 270.457 437.239)" fill="white"/>
<circle cx="72.1218" cy="282.853" r="6.76142" transform="rotate(-90 72.1218 282.853)" fill="white"/>
<defs>
<linearGradient id="paint0_linear_866_13502" x1="12.3957" y1="222" x2="12.3957" y2="405.685" gradientUnits="userSpaceOnUse">
<stop stop-color="#007AFF"/>
<stop offset="1" stop-color="#027AFD" stop-opacity="0"/>
</linearGradient>
<linearGradient id="paint1_linear_866_13502" x1="110.437" y1="145.37" x2="110.437" y2="464.284" gradientUnits="userSpaceOnUse">
<stop stop-color="#007AFF"/>
<stop offset="1" stop-color="#027AFD" stop-opacity="0"/>
</linearGradient>
<linearGradient id="paint2_linear_866_13502" x1="194.954" y1="330.183" x2="194.954" y2="528.518" gradientUnits="userSpaceOnUse">
<stop stop-color="#007AFF"/>
<stop offset="1" stop-color="#027AFD" stop-opacity="0"/>
</linearGradient>
</defs>
</svg>
