<svg width="1920" height="198" viewBox="0 0 1920 198" fill="none" xmlns="http://www.w3.org/2000/svg">
<path fill-rule="evenodd" clip-rule="evenodd" d="M0 9.59448L40 5.10863C80 0.622788 160 -8.3489 240 18.5662C320 45.4812 400 108.283 480 126.226C560 144.17 640 117.255 720 90.3397C800 63.4246 880 36.5096 960 40.9954C1040 45.4812 1120 81.368 1200 90.3397C1280 99.3114 1360 81.368 1440 94.8255C1520 108.283 1600 153.142 1680 148.656C1760 144.17 1840 90.3397 1880 63.4246L1920 36.5096V198H1880C1840 198 1760 198 1680 198C1600 198 1520 198 1440 198C1360 198 1280 198 1200 198C1120 198 1040 198 960 198C880 198 800 198 720 198C640 198 560 198 480 198C400 198 320 198 240 198C160 198 80 198 40 198H0V9.59448Z" fill="url(#paint0_linear_866_12197)"/>
<defs>
<linearGradient id="paint0_linear_866_12197" x1="960" y1="0" x2="960" y2="198" gradientUnits="userSpaceOnUse">
<stop stop-color="#2E3030"/>
<stop offset="1" stop-color="#141515"/>
</linearGradient>
</defs>
</svg>
