<svg width="50" height="44" viewBox="0 0 50 44" fill="none" xmlns="http://www.w3.org/2000/svg">
<path d="M43.75 26.6875V20.4375H40.625V23.5625H9.375V20.4375H6.25V26.6875H17.1875V33.5813L10.9375 37.0578V43.875H14.0625V38.8938L19.1562 36.0625H30.8453L35.9375 38.8953V43.875H39.0625V37.0578L32.8125 33.5813V26.6875H43.75ZM29.6875 32.9375H20.3125V26.6875H29.6875V32.9375Z" fill="white"/>
<path d="M0 14.1875H15.625V17.3125H0V14.1875ZM34.375 14.1875H50V17.3125H34.375V14.1875ZM25 6.375C23.769 6.37455 22.5501 6.61726 21.4132 7.08918C20.2763 7.56111 19.2438 8.25295 18.375 9.125L20.5828 11.3328C21.1625 10.752 21.851 10.2912 22.6089 9.97681C23.3669 9.66241 24.1794 9.50057 25 9.50057C25.8206 9.50057 26.6331 9.66241 27.3911 9.97681C28.149 10.2912 28.8375 10.752 29.4172 11.3328L31.6266 9.12344C30.7575 8.25142 29.7247 7.5597 28.5875 7.08804C27.4503 6.61638 26.2311 6.37406 25 6.375Z" fill="white"/>
<path d="M13.957 4.70606L16.1664 6.91543C17.3257 5.7538 18.7027 4.83221 20.2187 4.20341C21.7346 3.57461 23.3596 3.25095 25.0008 3.25095C26.6419 3.25095 28.267 3.57461 29.7829 4.20341C31.2988 4.83221 32.6758 5.7538 33.8352 6.91543L36.0445 4.70606C34.5955 3.2536 32.8741 2.10125 30.9791 1.31499C29.084 0.528738 27.0525 0.124023 25.0008 0.124023C22.9491 0.124023 20.9176 0.528738 19.0225 1.31499C17.1274 2.10125 15.4061 3.2536 13.957 4.70606Z" fill="white"/>
</svg>
