<svg width="361" height="332" viewBox="0 0 361 332" fill="none" xmlns="http://www.w3.org/2000/svg">
<g opacity="0.6">
<path d="M225.82 210.94C192.758 244.003 157.727 268.806 127.834 282.189C112.885 288.881 99.246 292.706 87.7944 293.296C76.3426 293.886 67.1359 291.24 60.9577 285.062C54.7795 278.884 52.1337 269.677 52.7236 258.225C53.3134 246.773 57.1384 233.134 63.8305 218.186C77.2132 188.292 102.016 153.262 135.079 120.199C168.142 87.1365 203.172 62.3333 233.066 48.9506C248.014 42.2585 261.653 38.4335 273.105 37.8437C284.557 37.2538 293.764 39.8996 299.942 46.0778C306.12 52.256 308.766 61.4627 308.176 72.9145C307.586 84.3662 303.761 98.0052 297.069 112.954C283.686 142.847 258.883 177.878 225.82 210.94Z" stroke="#C4C4C4"/>
<path d="M197.055 227.547C151.891 239.648 109.152 243.613 76.5719 240.256C60.2801 238.578 46.5558 235.071 36.3434 229.856C26.1309 224.641 19.4806 217.746 17.2192 209.306C14.9578 200.867 17.2699 191.571 23.5066 181.948C29.7433 172.325 39.8754 162.426 53.1451 152.826C79.6817 133.629 118.677 115.693 163.842 103.592C209.006 91.4899 251.745 87.5249 284.325 90.882C300.617 92.5608 314.341 96.0678 324.553 101.283C334.766 106.498 341.416 113.392 343.677 121.832C345.939 130.272 343.627 139.568 337.39 149.19C331.153 158.813 321.021 168.712 307.751 178.312C281.215 197.509 242.22 215.445 197.055 227.547Z" stroke="#C4C4C4"/>
</g>
</svg>
