<svg width="80" height="80" viewBox="0 0 80 80" fill="none" xmlns="http://www.w3.org/2000/svg">
<circle opacity="0.2" cx="40" cy="40" r="40" fill="#C4C4C4"/>
<path d="M40.5349 44.5336C44.3641 44.5336 47.4682 41.4891 47.4682 37.7336C47.4682 33.9781 44.3641 30.9336 40.5349 30.9336C36.7057 30.9336 33.6016 33.9781 33.6016 37.7336C33.6016 41.4891 36.7057 44.5336 40.5349 44.5336Z" stroke="white" stroke-linecap="round" stroke-linejoin="round"/>
<path d="M53.6078 50.5558L43.8017 60.1733C42.935 61.0224 41.7601 61.4994 40.535 61.4994C39.3099 61.4994 38.1349 61.0224 37.2682 60.1733L27.4599 50.5558C24.8742 48.0198 23.1134 44.7887 22.4001 41.2712C21.6868 37.7537 22.053 34.1078 23.4524 30.7944C24.8518 27.481 27.2216 24.649 30.262 22.6565C33.3025 20.6641 36.8771 19.6006 40.5338 19.6006C44.1905 19.6006 47.7651 20.6641 50.8056 22.6565C53.8461 24.649 56.2158 27.481 57.6152 30.7944C59.0146 34.1078 59.3808 37.7537 58.6675 41.2712C57.9542 44.7887 56.1934 48.0198 53.6078 50.5558V50.5558Z" stroke="white" stroke-linecap="round" stroke-linejoin="round"/>
</svg>
