<svg width="1385" height="1165" viewBox="0 0 1385 1165" fill="none" xmlns="http://www.w3.org/2000/svg">
<g opacity="0.5" filter="url(#filter0_b_866_12188)">
<path fill-rule="evenodd" clip-rule="evenodd" d="M616.959 793.706C614.351 785.974 612.937 777.693 612.937 769.082C612.937 730.92 640.698 699.243 677.127 693.142V434.361C498.515 441.604 355.937 588.692 355.937 769.082C355.937 823.317 368.826 874.542 391.706 919.861L616.959 793.706ZM632.6 820.477L406.946 946.856C466.188 1041.29 571.23 1104.08 690.937 1104.08C810.429 1104.08 915.309 1041.52 974.609 947.365L748.707 818.834C734.583 835.502 713.496 846.082 689.937 846.082C667.162 846.082 646.697 836.194 632.6 820.477ZM763.583 791.632L989.897 920.397C1012.95 874.946 1025.94 823.531 1025.94 769.082C1025.94 589.831 885.154 443.462 708.127 434.515V694.242C741.874 702.416 766.937 732.822 766.937 769.082C766.937 776.928 765.764 784.5 763.583 791.632ZM708.127 403.478C902.282 412.455 1056.94 572.707 1056.94 769.082C1056.94 829.108 1042.49 885.759 1016.88 935.747L1113.49 990.715C1127.55 975.563 1147.64 966.082 1169.94 966.082C1212.46 966.082 1246.94 1000.56 1246.94 1043.08C1246.94 1050.65 1245.85 1057.96 1243.81 1064.87L1384.19 1144.74L708.127 2.43562V135.243C741.874 143.416 766.937 173.822 766.937 210.082C766.937 246.341 741.874 276.747 708.127 284.921V403.478ZM677.127 134.142C640.698 140.243 612.937 171.92 612.937 210.082C612.937 248.243 640.698 279.92 677.127 286.021V403.337C481.39 410.599 324.937 571.57 324.937 769.082C324.937 828.819 339.249 885.214 364.631 935.025L267.281 989.546C253.282 975.077 233.66 966.082 211.937 966.082C169.411 966.082 134.937 1000.56 134.937 1043.08C134.937 1049.72 135.778 1056.16 137.358 1062.31L0 1139.24L677.127 0V134.142ZM18.1915 1164.58H1356.38L1229.22 1092.23C1215.09 1109.24 1193.78 1120.08 1169.94 1120.08C1127.41 1120.08 1092.94 1085.61 1092.94 1043.08C1092.94 1034.01 1094.51 1025.3 1097.39 1017.22L1001.58 962.711C936.926 1066.22 821.973 1135.08 690.937 1135.08C559.611 1135.08 444.44 1065.92 379.865 962.023L283.944 1015.74C287.171 1024.24 288.937 1033.45 288.937 1043.08C288.937 1085.61 254.463 1120.08 211.937 1120.08C187.155 1120.08 165.107 1108.37 151.023 1090.19L18.1915 1164.58Z" fill="#4F4F4F" fill-opacity="0.46"/>
</g>
<defs>
<filter id="filter0_b_866_12188" x="-54" y="-54" width="1492.19" height="1272.58" filterUnits="userSpaceOnUse" color-interpolation-filters="sRGB">
<feFlood flood-opacity="0" result="BackgroundImageFix"/>
<feGaussianBlur in="BackgroundImage" stdDeviation="27"/>
<feComposite in2="SourceAlpha" operator="in" result="effect1_backgroundBlur_866_12188"/>
<feBlend mode="normal" in="SourceGraphic" in2="effect1_backgroundBlur_866_12188" result="shape"/>
</filter>
</defs>
</svg>
