<svg width="607" height="605" viewBox="0 0 607 605" fill="none" xmlns="http://www.w3.org/2000/svg">
<path opacity="0.4" d="M305.249 0.626592L309.819 268.672L403.868 17.6261L321.156 272.632L491.624 65.726L330.593 280.059L559.007 139.714L337.108 290.147L598.715 231.573L339.993 301.804L606.445 331.347L338.938 313.767L581.36 428.226L334.055 324.738L526.177 511.71L325.874 333.53L446.878 572.753L315.282 339.189L352.054 604.74L303.427 341.102L251.982 604.204L291.593 339.062L157.506 571.204L281.062 333.29L78.8637 509.316L272.976 324.411L24.5777 425.246L268.211 313.388L0.530543 328.105L267.283 301.415L9.32806 228.419L270.294 289.79L50.0169 136.991L276.916 279.772L118.188 63.7279L286.432 272.447L206.453 16.5698L297.81 268.608L305.249 0.626592Z" fill="#FFD217"/>
</svg>
